<?xml version="1.0" encoding="UTF-8"?>
<svg width="226px" height="211px" viewBox="0 0 226 211" version="1.1" xmlns="http://www.w3.org/2000/svg" xmlns:xlink="http://www.w3.org/1999/xlink">
    <!-- Generator: Sketch 46.1 (44463) - http://www.bohemiancoding.com/sketch -->
    <title>Page 1</title>
    <desc>Created with Sketch.</desc>
    <defs></defs>
    <g id="Page-1" stroke="none" stroke-width="1" fill="none" fill-rule="evenodd">
        <g>
            <path d="M53.6174,210.986 C53.6174,210.986 40.7844,117.153 138.7844,122.486 C221.7844,122.486 225.6174,75.153 225.6174,47.486 C208.7844,37.486 171.2954,40.616 168.1174,33.986 C164.9394,27.356 161.6174,1.486 99.6174,1.486 C26.1174,1.486 -56.8826,129.486 53.6174,210.986" id="Fill-1" fill="#000000"></path>
            <path d="M135.9509,32.6525 C135.9509,29.6145 138.4129,27.1525 141.4509,27.1525 C144.4889,27.1525 146.9509,29.6145 146.9509,32.6525 C146.9509,35.6905 144.4889,38.1525 141.4509,38.1525 C138.4129,38.1525 135.9509,35.6905 135.9509,32.6525" id="Fill-4" fill="#FFFFFF"></path>
            <path d="M88.8025,0.0002 C88.8025,0.0002 88.3745,9.0852 94.4715,15.6392 C108.0195,30.2012 125.6715,56.1932 98.7755,72.5142 C59.7755,96.1812 49.2755,35.0142 49.2755,35.0142 C49.2755,35.0142 47.6005,27.5422 40.9425,25.1812 C37.8185,24.0732 46.9215,14.1322 58.7835,8.4862 C72.2015,2.1002 88.8025,0.0002 88.8025,0.0002" id="Fill-6" fill="#FFFFFF"></path>
        </g>
    </g>
</svg>